<?xml version="1.0" encoding="utf-8"?>
<!-- Generator: Adobe Illustrator 25.4.1, SVG Export Plug-In . SVG Version: 6.00 Build 0)  -->
<svg version="1.1" xmlns="http://www.w3.org/2000/svg" xmlns:xlink="http://www.w3.org/1999/xlink" x="0px" y="0px"
	 viewBox="0 0 1000 1000" style="enable-background:new 0 0 1000 1000;" xml:space="preserve">
<style type="text/css">
	.st0{display:none;}
	.st1{display:inline;fill:#FFFFFF;}
	.st2{fill:#000201;}
	.st3{fill:#FFFFFF;}
	.st4{display:inline;}
</style>
<g id="Layer_3" class="st0">
	<rect x="-0.4" y="-0.4" class="st1" width="1000.7" height="1000.7"/>
</g>
<g id="Layer_4">
	<g id="XMLID_00000078006483237940937230000007024818993265436863_">
		<rect x="-0.4" y="-0.4" class="st2" width="1000.7" height="1000.7"/>
	</g>
</g>
<g id="Layer_1">
	<g>
		<g>
			<path class="st2" d="M300.7,733.4c-0.6,0-1-0.4-1-1V587h-2.9c-0.3,0-0.5-0.1-0.7-0.3l-3.2-3.2c-0.2-0.2-0.3-0.4-0.3-0.7V566
				c0-0.3,0.1-0.5,0.3-0.7l4.5-4.5c0.2-0.2,0.4-0.3,0.7-0.3h3.3v-15.2h-3.6c-0.3,0-0.5-0.1-0.7-0.3l-6.5-6.5
				c-0.2-0.2-0.3-0.4-0.3-0.7v-32.4c0-0.3,0.1-0.5,0.3-0.7l5.6-5.6V454c0-0.6,0.4-1,1-1h14.7c0.6,0,1,0.4,1,1v12.5h0.4
				c0.6,0,1,0.4,1,1V489h4.4c0.6,0,1,0.4,1,1v3.9l1,1v-62.5c0-0.3,0.1-0.5,0.3-0.7l4-4v-16.3l-3.5-3.5c-0.2-0.2-0.3-0.4-0.3-0.7v-14
				c0-0.3,0.1-0.5,0.3-0.7l4.2-4.2v-73c0-0.3,0.1-0.5,0.3-0.7l4.1-4.1v-14.3c0-0.3,0.1-0.5,0.3-0.7l3.4-3.4c0.2-0.2,0.4-0.3,0.7-0.3
				c0.1,0,0.3,0,0.4,0.1c0.4,0.2,0.6,0.5,0.6,0.9v21.4h1.6v-12.5c0-0.3,0.1-0.5,0.3-0.7l2.5-2.5v-12.7c0-0.3,0.1-0.5,0.3-0.7
				l4.3-4.3V248c0-0.3,0.1-0.5,0.3-0.7l3.6-3.6c0.2-0.2,0.4-0.3,0.7-0.3c0.1,0,0.3,0,0.4,0.1c0.4,0.2,0.6,0.5,0.6,0.9l-0.2,111l3,3
				c0.2,0.2,0.3,0.4,0.3,0.7v87.7l4.7-4.7v-25.3c0-0.3,0.1-0.5,0.3-0.7l4.1-4.1v-53.9c0-0.6,0.4-1,1-1h3.6c0.6,0,1,0.4,1,1v71.8h1.6
				v-42.7c0-0.6,0.4-1,1-1h6.1v-4c0-0.3,0.1-0.5,0.3-0.7l4.6-4.6c0.2-0.2,0.4-0.3,0.7-0.3c0.1,0,0.3,0,0.4,0.1
				c0.4,0.2,0.6,0.5,0.6,0.9v64.7l5.3,5.3c0.2,0.2,0.3,0.4,0.3,0.7v133l4.5,4.5c0.2,0.2,0.3,0.4,0.3,0.7v146c0,0.6-0.4,1-1,1H300.7z
				 M318.1,723.3v-79.7h-1.2v79.7H318.1z M311,721.9v-91.4h-1.2v91.4H311z M328.8,721.1v-59.4H328v59.4H328.8z M356.9,553.5v-1.9
				h-10.1v1.9H356.9z M373.2,526.5V461H372v65.5H373.2z M308.9,493.1v-0.8h-5.5v0.8H308.9z M307.5,487.4v-0.5h-4.7v0.5H307.5z
				 M330.6,454.4v-11.1h-0.8v11.1H330.6z"/>
			<path class="st3" d="M349,244.4l-0.2,111.4l3.3,3.3V395v54.3l6.7-6.7v-25.8l4.4-4.4v-54.3h3.6v72.8h3.6v-43.7h7.1v-5l4.6-4.6
				v65.1l5.6,5.6v133.4l4.8,4.8v146h-91.6V586h-3.9l-3.2-3.2V566l4.5-4.5h4.3v-17.2h-4.6l-6.5-6.5v-32.4l5.9-5.9V454h14.7v13.5h1.4
				V490h5.4v4.3l3,3v-64.9l4.3-4.3v-17.2l-3.8-3.8v-14l4.5-4.5v-73.4l4.4-4.4v-14.7l3.4-3.4v22.4h3.6v-13.5l2.8-2.8v-13.1l4.6-4.6
				v-33L349,244.4 M328.7,455.4h2.8v-13.1h-2.8V455.4 M371,527.5h3.2V460H371V527.5 M341.2,468.5h6.4v-1.8h-6.4V468.5 M341.2,473.5
				h7.1v-1.8h-7.1V473.5 M301.7,488.4h6.7v-2.5h-6.7V488.4 M302.5,494.1h7.5v-2.8h-7.5V494.1 M345.8,554.5h12.1v-3.9h-12.1V554.5
				 M308.8,722.9h3.2v-93.4h-3.2V722.9 M315.9,724.3h3.2v-81.7h-3.2V724.3 M327,722.1h2.8v-61.4H327V722.1 M349,242.4
				c-0.5,0-1,0.2-1.4,0.6l-3.6,3.6c-0.4,0.4-0.6,0.9-0.6,1.4v32.2l-4,4c-0.4,0.4-0.6,0.9-0.6,1.4v12.3l-2.3,2.3c0,0-0.1,0.1-0.1,0.2
				v-7.6c0-0.8-0.5-1.5-1.2-1.8c-0.2-0.1-0.5-0.2-0.8-0.2c-0.5,0-1,0.2-1.4,0.6l-3.4,3.4c-0.4,0.4-0.6,0.9-0.6,1.4V310l-3.8,3.8
				c-0.4,0.4-0.6,0.9-0.6,1.4v72.6l-3.9,3.9c-0.4,0.4-0.6,0.9-0.6,1.4v14c0,0.5,0.2,1,0.6,1.4l3.2,3.2v15.5l-3.7,3.7
				c-0.4,0.4-0.6,0.9-0.6,1.4v55.9c-0.3-0.2-0.7-0.3-1-0.3h-3.4v-20.5c0-0.9-0.6-1.7-1.4-1.9V454c0-1.1-0.9-2-2-2h-14.7
				c-1.1,0-2,0.9-2,2v44.6l-5.3,5.3c-0.4,0.4-0.6,0.9-0.6,1.4v32.4c0,0.5,0.2,1,0.6,1.4l6.5,6.5c0.4,0.4,0.9,0.6,1.4,0.6h2.6v13.2
				h-2.3c-0.5,0-1,0.2-1.4,0.6l-4.5,4.5c-0.4,0.4-0.6,0.9-0.6,1.4v16.8c0,0.5,0.2,1,0.6,1.4l3.2,3.2c0.4,0.4,0.9,0.6,1.4,0.6h1.9
				v144.5c0,1.1,0.9,2,2,2h91.6c1.1,0,2-0.9,2-2v-146c0-0.5-0.2-1-0.6-1.4l-4.2-4.2V448.3c0-0.5-0.2-1-0.6-1.4l-5-5v-64.3
				c0-0.8-0.5-1.5-1.2-1.8c-0.2-0.1-0.5-0.2-0.8-0.2c-0.5,0-1,0.2-1.4,0.6l-4.6,4.6c-0.4,0.4-0.6,0.9-0.6,1.4v3h-5.1
				c-0.6,0-1.2,0.3-1.6,0.7v-27.9c0-1.1-0.9-2-2-2h-3.6c-1.1,0-2,0.9-2,2v53.5l-3.9,3.9c-0.4,0.4-0.6,0.9-0.6,1.4v24.9l-2.7,2.7V395
				v-35.9c0-0.5-0.2-1-0.6-1.4l-2.7-2.7l0.2-110.6c0-0.8-0.5-1.5-1.2-1.9C349.5,242.5,349.2,242.4,349,242.4L349,242.4z M349,246.4
				L349,246.4L349,246.4L349,246.4z"/>
		</g>
		<g>
			<path class="st2" d="M607.7,733.4c-0.6,0-1-0.4-1-1v-146c0-0.3,0.1-0.5,0.3-0.7l4.5-4.5v-133c0-0.3,0.1-0.5,0.3-0.7l5.3-5.3
				v-64.7c0-0.4,0.2-0.8,0.6-0.9c0.1-0.1,0.3-0.1,0.4-0.1c0.3,0,0.5,0.1,0.7,0.3l4.6,4.6c0.2,0.2,0.3,0.4,0.3,0.7v4h6.1
				c0.6,0,1,0.4,1,1v42.7h1.6v-71.8c0-0.6,0.4-1,1-1h3.6c0.6,0,1,0.4,1,1V412l4.1,4.1c0.2,0.2,0.3,0.4,0.3,0.7v25.3l4.7,4.7v-87.7
				c0-0.3,0.1-0.5,0.3-0.7l3-3l-0.2-111c0-0.4,0.2-0.8,0.6-0.9c0.1-0.1,0.3-0.1,0.4-0.1c0.3,0,0.5,0.1,0.7,0.3l3.6,3.6
				c0.2,0.2,0.3,0.4,0.3,0.7v32.6l4.3,4.3c0.2,0.2,0.3,0.4,0.3,0.7v12.7l2.5,2.5c0.2,0.2,0.3,0.4,0.3,0.7v12.5h1.6v-21.4
				c0-0.4,0.2-0.8,0.6-0.9c0.1-0.1,0.3-0.1,0.4-0.1c0.3,0,0.5,0.1,0.7,0.3l3.4,3.4c0.2,0.2,0.3,0.4,0.3,0.7v14.3l4.1,4.1
				c0.2,0.2,0.3,0.4,0.3,0.7v73l4.2,4.2c0.2,0.2,0.3,0.4,0.3,0.7v14c0,0.3-0.1,0.5-0.3,0.7l-3.5,3.5v16.3l4,4
				c0.2,0.2,0.3,0.4,0.3,0.7v62.5l1-1V490c0-0.6,0.4-1,1-1h4.4v-21.5c0-0.6,0.4-1,1-1h0.4V454c0-0.6,0.4-1,1-1h14.7c0.6,0,1,0.4,1,1
				V499l5.6,5.6c0.2,0.2,0.3,0.4,0.3,0.7v32.4c0,0.3-0.1,0.5-0.3,0.7L703,545c-0.2,0.2-0.4,0.3-0.7,0.3h-3.6v15.2h3.3
				c0.3,0,0.5,0.1,0.7,0.3l4.5,4.5c0.2,0.2,0.3,0.4,0.3,0.7v16.8c0,0.3-0.1,0.5-0.3,0.7l-3.2,3.2c-0.2,0.2-0.4,0.3-0.7,0.3h-2.9
				v145.5c0,0.6-0.4,1-1,1H607.7z M683.1,723.3v-79.7h-1.2v79.7H683.1z M690.2,721.9v-91.4H689v91.4H690.2z M672,721.1v-59.4h-0.8
				v59.4H672z M653.2,553.5v-1.9h-10.1v1.9H653.2z M628,526.5V461h-1.2v65.5H628z M696.5,493.1v-0.8h-5.5v0.8H696.5z M697.3,487.4
				v-0.5h-4.7v0.5H697.3z M670.3,454.4v-11.1h-0.8v11.1H670.3z"/>
			<path class="st3" d="M651,244.4l3.6,3.6v33l4.6,4.6v13.1l2.8,2.8v13.5h3.6v-22.4l3.4,3.4v14.7l4.4,4.4v73.4l4.5,4.5v14l-3.8,3.8
				V428l4.3,4.3v64.9l3-3V490h5.4v-22.5h1.4V454h14.7v45.5l5.9,5.9v32.4l-6.5,6.5h-4.6v17.2h4.3l4.5,4.5v16.8l-3.2,3.2h-3.9v146.5
				h-91.6v-146l4.8-4.8V448.3l5.6-5.6v-65.1l4.6,4.6v5h7.1v43.7h3.6v-72.8h3.6v54.3l4.4,4.4v25.8l6.7,6.7V395v-35.9l3.3-3.3
				L651,244.4 M668.4,455.4h2.8v-13.1h-2.8V455.4 M625.8,527.5h3.2V460h-3.2V527.5 M652.4,468.5h6.4v-1.8h-6.4V468.5 M651.7,473.5
				h7.1v-1.8h-7.1V473.5 M691.5,488.4h6.7v-2.5h-6.7V488.4 M690.1,494.1h7.5v-2.8h-7.5V494.1 M642.1,554.5h12.1v-3.9h-12.1V554.5
				 M688,722.9h3.2v-93.4H688V722.9 M680.9,724.3h3.2v-81.7h-3.2V724.3 M670.2,722.1h2.8v-61.4h-2.8V722.1 M651,242.4
				c-0.3,0-0.5,0.1-0.8,0.2c-0.7,0.3-1.2,1-1.2,1.9l0.2,110.6l-2.7,2.7c-0.4,0.4-0.6,0.9-0.6,1.4V395v49.4l-2.7-2.7v-24.9
				c0-0.5-0.2-1-0.6-1.4l-3.9-3.9v-53.5c0-1.1-0.9-2-2-2h-3.6c-1.1,0-2,0.9-2,2v27.9c-0.4-0.5-0.9-0.7-1.6-0.7h-5.1v-3
				c0-0.5-0.2-1-0.6-1.4l-4.6-4.6c-0.4-0.4-0.9-0.6-1.4-0.6c-0.3,0-0.5,0-0.8,0.2c-0.7,0.3-1.2,1-1.2,1.8v64.3l-5,5
				c-0.4,0.4-0.6,0.9-0.6,1.4v132.5l-4.2,4.2c-0.4,0.4-0.6,0.9-0.6,1.4v146c0,1.1,0.9,2,2,2h91.6c1.1,0,2-0.9,2-2V588h1.9
				c0.5,0,1-0.2,1.4-0.6l3.2-3.2c0.4-0.4,0.6-0.9,0.6-1.4V566c0-0.5-0.2-1-0.6-1.4l-4.5-4.5c-0.4-0.4-0.9-0.6-1.4-0.6h-2.3v-13.2
				h2.6c0.5,0,1-0.2,1.4-0.6l6.5-6.5c0.4-0.4,0.6-0.9,0.6-1.4v-32.4c0-0.5-0.2-1-0.6-1.4l-5.3-5.3V454c0-1.1-0.9-2-2-2h-14.7
				c-1.1,0-2,0.9-2,2v11.6c-0.8,0.2-1.4,1-1.4,1.9V488h-3.4c-0.4,0-0.7,0.1-1,0.3v-55.9c0-0.5-0.2-1-0.6-1.4l-3.7-3.7v-15.5l3.2-3.2
				c0.4-0.4,0.6-0.9,0.6-1.4v-14c0-0.5-0.2-1-0.6-1.4l-3.9-3.9v-72.6c0-0.5-0.2-1-0.6-1.4L671,310v-13.9c0-0.5-0.2-1-0.6-1.4
				l-3.4-3.4c-0.4-0.4-0.9-0.6-1.4-0.6c-0.3,0-0.5,0-0.8,0.2c-0.7,0.3-1.2,1-1.2,1.8v7.6c0-0.1-0.1-0.1-0.1-0.2l-2.3-2.3v-12.3
				c0-0.5-0.2-1-0.6-1.4l-4-4V248c0-0.5-0.2-1-0.6-1.4l-3.6-3.6C652,242.6,651.5,242.4,651,242.4L651,242.4z"/>
		</g>
		<g>
			<path class="st2" d="M525.6,733.7c-0.2,0-0.5-0.1-0.6-0.2h-50c-0.2,0.1-0.4,0.2-0.6,0.2h-19.2c-0.2,0-0.5-0.1-0.6-0.2h-62.2
				c-0.6,0-1-0.4-1-1V461.6c0-0.3,0.1-0.5,0.3-0.7l3.5-3.5V401c0-0.3,0.1-0.5,0.3-0.7l3.8-3.8v-49l-3.4-3.4c-0.4-0.4-0.4-1,0-1.4
				l3.9-3.9v-42.8c0-0.3,0.1-0.5,0.3-0.7l2.7-2.7v-36.8c0-0.3,0.1-0.5,0.3-0.7l4-4c0.2-0.2,0.4-0.3,0.7-0.3c0.1,0,0.3,0,0.4,0.1
				c0.4,0.2,0.6,0.5,0.6,0.9l0.1,37.6l4.8-4.8c0.2-0.2,0.5-0.3,0.7-0.3s0.5,0.1,0.7,0.3l6.9,6.9c0.2,0.2,0.3,0.4,0.3,0.7v40.5
				l0.2,0.2v-27.1c0-0.6,0.4-1,1-1h8.6c0.6,0,1,0.4,1,1v21.4h21.3c0.3,0,0.5,0.1,0.7,0.3l4.8,4.8c0.2,0.2,0.3,0.4,0.3,0.7v59.6
				l4.2,4.2c0.2,0.2,0.3,0.4,0.3,0.7v5.1c0,0.6-0.4,1-1,1h-3.2v30.8l7.9,7.9c0.2,0.2,0.3,0.4,0.3,0.7v30.2c0,0.3-0.1,0.5-0.3,0.7
				l-3.6,3.6V529c0,0.3-0.1,0.5-0.3,0.7l-2.1,2.1v68.4l3.9,3.9l4.2-4.2V445.6c0-0.3,0.1-0.5,0.3-0.7l6.8-6.8
				c0.2-0.2,0.4-0.3,0.7-0.3h4.6l-1.9-1.9c-0.2-0.2-0.3-0.4-0.3-0.7v-38.7c0-0.6,0.4-1,1-1h6.8v-3.5h-9.1c-0.3,0-0.5-0.1-0.7-0.3
				l-6.6-6.6c-0.3-0.3-0.4-0.7-0.2-1.1c0.2-0.4,0.5-0.6,0.9-0.6h15.7v-40.2c0-0.3,0.1-0.5,0.3-0.7l4.7-4.7V211
				c0-0.3,0.1-0.5,0.3-0.7l2.5-2.5v-39.4c0-0.1,0-0.1,0-0.2l2.5-12.4c0.1-0.5,0.5-0.8,1-0.8c0,0,0,0,0,0c0.5,0,0.9,0.3,1,0.8
				l2.5,12.4c0,0.1,0,0.1,0,0.2v39.4l2.5,2.5c0.2,0.2,0.3,0.4,0.3,0.7v126.7l4.7,4.7c0.2,0.2,0.3,0.4,0.3,0.7v40.2H527
				c0.4,0,0.8,0.2,0.9,0.6c0.2,0.4,0.1,0.8-0.2,1.1l-6.6,6.6c-0.2,0.2-0.4,0.3-0.7,0.3h-9.1v3.5h6.8c0.6,0,1,0.4,1,1v38.7
				c0,0.3-0.1,0.5-0.3,0.7l-1.9,1.9h4.6c0.3,0,0.5,0.1,0.7,0.3l6.8,6.8c0.2,0.2,0.3,0.4,0.3,0.7v154.2l4.3,4.3l3.9-3.9v-68.4
				l-2.1-2.1c-0.2-0.2-0.3-0.4-0.3-0.7v-51.4l-3.6-3.6c-0.2-0.2-0.3-0.4-0.3-0.7v-30.2c0-0.3,0.1-0.5,0.3-0.7l7.9-7.9v-30.8h-3.2
				c-0.6,0-1-0.4-1-1v-5.1c0-0.3,0.1-0.5,0.3-0.7l4.2-4.2V333c0-0.3,0.1-0.5,0.3-0.7l4.8-4.8c0.2-0.2,0.4-0.3,0.7-0.3h21.3v-21.4
				c0-0.6,0.4-1,1-1h8.6c0.6,0,1,0.4,1,1v27.1l0.2-0.2v-40.5c0-0.3,0.1-0.5,0.3-0.7l6.9-6.9c0.2-0.2,0.5-0.3,0.7-0.3
				s0.5,0.1,0.7,0.3l4.8,4.8l0.1-37.6c0-0.4,0.2-0.8,0.6-0.9c0.1-0.1,0.3-0.1,0.4-0.1c0.3,0,0.5,0.1,0.7,0.3l4,4
				c0.2,0.2,0.3,0.4,0.3,0.7v36.8l2.7,2.7c0.2,0.2,0.3,0.4,0.3,0.7v42.8l3.9,3.9c0.4,0.4,0.4,1,0,1.4l-3.4,3.4v49l3.8,3.8
				c0.2,0.2,0.3,0.4,0.3,0.7v56.4l3.5,3.5c0.2,0.2,0.3,0.4,0.3,0.7v270.9c0,0.6-0.4,1-1,1h-62.2c-0.2,0.2-0.4,0.2-0.6,0.2H525.6z
				 M570.3,716.8v-42h-8.7v42H570.3z M438.4,716.8v-42h-8.7v42H438.4z M500,705.2v-4h-18.6v4H500z M549.9,700.8V621h-1.4v79.9H549.9
				z M451.5,700.8V621h-1.4v79.9H451.5z M519.2,675.3v-41.7h-9.4v41.7H519.2z M488.6,629.5v-8.7H480v8.7H488.6z M599.8,576.3v-1.2
				h-27.3v1.2H599.8z M427.5,576.3v-1.2h-27.3v1.2H427.5z M517.8,565.2v-4h-17.2v4H517.8z M600.8,536.2v-59.8h-0.5v59.8H600.8z
				 M399.7,536.2v-59.8h-0.5v59.8H399.7z M577,531.4v-1.6h-10.8v1.6H577z M433.8,531.4v-1.6H423v1.6H433.8z M594.6,508.1v-0.7h-8.3
				v0.7H594.6z M413.7,508.1v-0.7h-8.3v0.7H413.7z M525.6,502.3v-2.3h-13.3v2.3H525.6z M492.2,488.8v-1.9h-12.6v1.9H492.2z
				 M539,466.2v-19.3h-0.3v19.3H539z M461.3,466.2v-19.3H461v19.3H461.3z M498.2,465v-2.3h-17.9v2.3H498.2z M491.8,452.6v-2.3h-14
				v2.3H491.8z M588.6,413.5v-31h-1v31H588.6z M412.5,413.5v-31h-1v31H412.5z M510.8,410.5v-2.3h-16.7v2.3H510.8z M554.5,387.4v-0.5
				h-7.4v0.5H554.5z M452.9,387.4v-0.5h-7.4v0.5H452.9z M493.5,382.8v-31.6h-1.1v31.6H493.5z M555.9,369.1v-0.5h-9.5v0.5H555.9z
				 M453.7,369.1v-0.5h-9.5v0.5H453.7z M557.3,347.6v-0.5h-8.7v0.5H557.3z M451.3,347.6v-0.5h-8.7v0.5H451.3z M500.6,215.6v-2.5
				h-2.3v2.5H500.6z"/>
			<path class="st3" d="M500,156l2.5,12.4v39.8l2.8,2.8v127.2l5,5v41.2H527l-6.6,6.6h-10.1v5.5h7.8v38.7l-3.6,3.6h7l6.8,6.8v154.6
				l5.3,5.3l4.9-4.9v-69.3l-2.4-2.4v-26.8v-5.7v-19.4l-3.9-3.9v-30.2l8.2-8.2v-32.3h-4.2v-5.1l4.5-4.5v-60l4.8-4.8h22.3v-22.4h8.6
				v29.5l2.2-2.2v-40.9l6.9-6.9l6.5,6.5l0.1-40l4,4v37.2l3,3v43.2l4.2,4.2l-3.7,3.7v49.8l4.1,4.1v56.8l3.8,3.8v111.3v159.6h-62.8
				l0,0.2h-19.2v-0.2h-25h-1.4h-24.9v0.2h-19.2l0-0.2h-62.8V572.8V461.6l3.8-3.8V401l4.1-4.1v-49.8l-3.7-3.7l4.2-4.2v-43.2l3-3
				v-37.2l4-4l0.1,40l6.5-6.5l6.9,6.9V333l2.2,2.2v-29.5h8.6v22.4h22.3l4.8,4.8v60l4.5,4.5v5.1h-4.2v32.3l8.2,8.2v30.2l-3.9,3.9
				v19.4v5.7V529l-2.4,2.4v69.3l4.9,4.9l5.2-5.2V445.6l6.8-6.8h7l-3.6-3.6v-38.7h7.8v-5.5h-10.1l-6.6-6.6h16.7v-41.2l5-5V211
				l2.8-2.8v-39.8L500,156l0,12L500,156 M497.3,216.6h4.3v-4.5h-4.3V216.6 M545.3,340.8h11.2v-2h-11.2V340.8 M443.5,340.8h11.2v-2
				h-11.2V340.8 M547.7,348.6h10.7v-2.5h-10.7V348.6 M441.7,348.6h10.7v-2.5h-10.7V348.6 M491.4,383.8h3.1v-33.6h-3.1V383.8
				 M545.3,370.1h11.5v-2.5h-11.5V370.1 M443.1,370.1h11.5v-2.5h-11.5V370.1 M586.5,414.5h3v-33h-3V414.5 M410.4,414.5h3v-33h-3
				V414.5 M546.1,388.4h9.4v-2.5h-9.4V388.4 M444.5,388.4h9.4v-2.5h-9.4V388.4 M493.1,411.5h18.7v-4.3h-18.7V411.5 M562.9,431.7
				h21.1v-1.8h-21.1V431.7 M415.9,431.7h21.1v-1.8h-21.1V431.7 M537.7,467.2h2.3v-21.3h-2.3V467.2 M460,467.2h2.3v-21.3H460V467.2
				 M476.9,453.6h16v-4.3h-16V453.6 M479.3,466h19.9v-4.3h-19.9V466 M599.3,537.2h2.5v-61.8h-2.5V537.2 M398.2,537.2h2.5v-61.8h-2.5
				V537.2 M478.6,489.8h14.6v-3.9h-14.6V489.8 M511.3,503.3h15.3v-4.3h-15.3V503.3 M585.3,509.1h10.3v-2.7h-10.3V509.1 M404.4,509.1
				h10.3v-2.7h-10.3V509.1 M565.2,532.4H578v-3.6h-12.8V532.4 M422,532.4h12.8v-3.6H422V532.4 M499.6,566.2h19.2v-6h-19.2V566.2
				 M571.5,577.3h29.3v-3.2h-29.3V577.3 M399.2,577.3h29.3v-3.2h-29.3V577.3 M479,630.5h10.7v-10.7H479V630.5 M547.5,701.8h3.4V620
				h-3.4V701.8 M449.1,701.8h3.4V620h-3.4V701.8 M508.8,676.3h11.4v-43.7h-11.4V676.3 M560.6,717.8h10.7v-44h-10.7V717.8
				 M428.7,717.8h10.7v-44h-10.7V717.8 M480.4,706.2H501v-6h-20.6V706.2 M500,154C500,154,500,154,500,154
				C500,154,499.9,154,500,154c-1,0-1.8,0.7-2,1.6l-2.5,12.4c0,0.1,0,0.3,0,0.4v39l-2.3,2.3c-0.4,0.4-0.6,0.9-0.6,1.4v126.3
				l-4.4,4.4c-0.4,0.4-0.6,0.9-0.6,1.4v39.2h-14.7c-0.8,0-1.5,0.5-1.8,1.2c-0.3,0.7-0.1,1.6,0.4,2.2l6.6,6.6
				c0.4,0.4,0.9,0.6,1.4,0.6h8.1v1.5h-5.8c-1.1,0-2,0.9-2,2v38.7c0,0.5,0.2,1,0.6,1.4l0.2,0.2h-2.2c-0.5,0-1,0.2-1.4,0.6l-6.8,6.8
				c-0.2,0.2-0.3,0.4-0.4,0.6v-1.7c0-0.5-0.2-1-0.6-1.4l-7.6-7.6v-29.4h2.2c1.1,0,2-0.9,2-2v-5.1c0-0.5-0.2-1-0.6-1.4l-3.9-3.9V333
				c0-0.5-0.2-1-0.6-1.4l-4.8-4.8c-0.4-0.4-0.9-0.6-1.4-0.6h-20.3v-20.4c0-1.1-0.9-2-2-2h-8.6c-0.1,0-0.1,0-0.2,0v-11.6
				c0-0.5-0.2-1-0.6-1.4l-6.9-6.9c-0.4-0.4-0.9-0.6-1.4-0.6s-1,0.2-1.4,0.6l-3.1,3.1l-0.1-35.2c0-0.8-0.5-1.5-1.2-1.8
				c-0.2-0.1-0.5-0.2-0.8-0.2c-0.5,0-1,0.2-1.4,0.6l-4,4c-0.4,0.4-0.6,0.9-0.6,1.4v36.3l-2.4,2.4c-0.4,0.4-0.6,0.9-0.6,1.4v42.4
				l-3.6,3.6c-0.4,0.4-0.6,0.9-0.6,1.4c0,0.5,0.2,1,0.6,1.4l3.1,3.1v48.2l-3.5,3.5c-0.4,0.4-0.6,0.9-0.6,1.4v55.9l-3.2,3.2
				c-0.4,0.4-0.6,0.9-0.6,1.4v111.3v159.6c0,1.1,0.9,2,2,2h61.9c0.3,0.2,0.6,0.2,0.9,0.2h19.2c0.3,0,0.7-0.1,0.9-0.2h23.9h1.4h24
				c0.3,0.2,0.6,0.2,0.9,0.2h19.2c0.3,0,0.7-0.1,0.9-0.2h61.9c1.1,0,2-0.9,2-2V572.8V461.6c0-0.5-0.2-1-0.6-1.4l-3.2-3.2V401
				c0-0.5-0.2-1-0.6-1.4l-3.5-3.5v-48.2l3.1-3.1c0.4-0.4,0.6-0.9,0.6-1.4c0-0.5-0.2-1-0.6-1.4l-3.6-3.6v-42.4c0-0.5-0.2-1-0.6-1.4
				l-2.4-2.4v-36.3c0-0.5-0.2-1-0.6-1.4l-4-4c-0.4-0.4-0.9-0.6-1.4-0.6c-0.3,0-0.5,0-0.8,0.2c-0.7,0.3-1.2,1-1.2,1.8l-0.1,35.2
				l-3.1-3.1c-0.4-0.4-0.9-0.6-1.4-0.6s-1,0.2-1.4,0.6l-6.9,6.9c-0.4,0.4-0.6,0.9-0.6,1.4v11.6c-0.1,0-0.1,0-0.2,0h-8.6
				c-1.1,0-2,0.9-2,2v20.4h-20.3c-0.5,0-1,0.2-1.4,0.6l-4.8,4.8c-0.4,0.4-0.6,0.9-0.6,1.4v59.2l-3.9,3.9c-0.4,0.4-0.6,0.9-0.6,1.4
				v5.1c0,1.1,0.9,2,2,2h2.2V434l-7.6,7.6c-0.4,0.4-0.6,0.9-0.6,1.4v1.9c-0.1-0.3-0.3-0.6-0.5-0.8l-6.8-6.8
				c-0.4-0.4-0.9-0.6-1.4-0.6h-2.2l0.2-0.2c0.4-0.4,0.6-0.9,0.6-1.4v-38.7c0-1.1-0.9-2-2-2h-5.8v-1.5h8.1c0.5,0,1-0.2,1.4-0.6
				l6.6-6.6c0.6-0.6,0.7-1.4,0.4-2.2c-0.3-0.7-1-1.2-1.8-1.2h-14.7v-39.2c0-0.5-0.2-1-0.6-1.4l-4.4-4.4V211c0-0.5-0.2-1-0.6-1.4
				l-2.3-2.3v-39c0-0.1,0-0.3,0-0.4l-2.5-12.4C501.7,154.6,500.9,154,500,154L500,154z M499.3,214.1h0.3v0.5h-0.3V214.1L499.3,214.1
				z M495.1,409.2h14.7v0.3h-14.7V409.2L495.1,409.2z M478.9,451.4h12v0.3h-12V451.4L478.9,451.4z M481.3,463.8h15.9v0.3h-15.9
				V463.8L481.3,463.8z M530.4,599.4V473.9c0.1,0.3,0.3,0.6,0.5,0.8l3.3,3.3v18.6v5.7V529c0,0.5,0.2,1,0.6,1.4l1.8,1.8v67.6
				l-2.9,2.9L530.4,599.4L530.4,599.4z M465.8,478l3.3-3.3c0.2-0.2,0.3-0.4,0.4-0.6v125.4l-3.2,3.2l-2.9-2.9v-67.6l1.8-1.8
				c0.4-0.4,0.6-0.9,0.6-1.4v-26.8v-5.7V478L465.8,478z M513.3,501.1h11.3v0.3h-11.3V501.1L513.3,501.1z M501.6,562.2h15.2v2h-15.2
				V562.2L501.6,562.2z M481,621.8h6.7v6.7H481V621.8L481,621.8z M510.8,634.6h7.4v39.7h-7.4V634.6L510.8,634.6z M562.6,675.8h6.7
				v40h-6.7V675.8L562.6,675.8z M430.7,675.8h6.7v40h-6.7V675.8L430.7,675.8z M482.4,702.1H499v2h-16.6V702.1L482.4,702.1z"/>
		</g>
	</g>
	<g>
		<path class="st2" d="M563.8,845c-0.6,0-1-0.4-1-1v-54h-29.6v54c0,0.6-0.4,1-1,1h-50.9c-0.6,0-1-0.4-1-1v-16l-16.7,16.7
			c-0.2,0.2-0.4,0.3-0.7,0.3H280.9c-0.3,0-0.5-0.1-0.7-0.3l-34.4-34.4c-0.2-0.2-0.3-0.4-0.3-0.7v-189c0-0.6,0.4-1,1-1h36L245.8,583
			c-0.2-0.2-0.3-0.4-0.3-0.7v-44.1c0-0.6,0.4-1,1-1h367.6c0.1,0,0.2,0,0.3,0.1h25.4c0.3,0,0.5,0.1,0.7,0.3l34.2,34.2l34.2-34.2
			c0.2-0.2,0.4-0.3,0.7-0.3l4.7,0c0.1,0,0.1,0,0.2,0h38.9c0.6,0,1,0.4,1,1V699c0,0.3-0.1,0.6-0.4,0.8v54.8c0,0.3-0.1,0.5-0.3,0.7
			l-34.4,34.4c-0.2,0.2-0.4,0.3-0.7,0.3h-69.5v54c0,0.6-0.4,1-1,1c0,0-33.5,0-33.5,0H563.8z"/>
		<path class="st3" d="M614.1,538.2L614.1,538.2l25.8,0.1l34.9,34.9l34.9-34.9l4.9,0v0h38.9V699h-0.4v55.6L718.7,789h-70.5v55h-33.5
			v0h-50.9v-55h-31.6v55h-50.9v-18.4L462.8,844h-82.9h-16.2h-82.9l-34.4-34.4V699.1v-16v-62.4H285l-38.4-38.4v-44.1h117.1h16.4h66.1
			h23.5h11.1H497H614.1 M614.1,536.2H497h-16.4h-11.1h-23.5h-66.1h-16.4H246.5c-1.1,0-2,0.9-2,2v44.1c0,0.5,0.2,1,0.6,1.4l35,35
			h-33.6c-1.1,0-2,0.9-2,2v62.4v16v110.6c0,0.5,0.2,1,0.6,1.4l34.4,34.4c0.4,0.4,0.9,0.6,1.4,0.6h82.9h16.2h82.9
			c0.5,0,1-0.2,1.4-0.6l15-15V844c0,1.1,0.9,2,2,2h50.9c1.1,0,2-0.9,2-2v-53h27.6v53c0,1.1,0.9,2,2,2h50.9c0,0,0.1,0,0.1,0h33.4
			c1.1,0,2-0.9,2-2v-53h68.5c0.5,0,1-0.2,1.4-0.6l34.4-34.4c0.4-0.4,0.6-0.9,0.6-1.4v-54.5c0.2-0.3,0.4-0.7,0.4-1.2V538.3
			c0-1.1-0.9-2-2-2h-38.9c-0.1,0-0.2,0-0.3,0l-4.6,0c-0.5,0-1,0.2-1.4,0.6l-33.5,33.5l-33.5-33.5c-0.4-0.4-0.9-0.6-1.4-0.6h-25.3
			C614.4,536.2,614.3,536.2,614.1,536.2L614.1,536.2z"/>
	</g>
	<g>
		<g>
			<polygon class="st3" points="258.2,577.4 368.2,687.4 368.2,648.5 297.1,577.4 368.2,577.4 368.2,549.9 258.2,549.9 			"/>
		</g>
		<g>
			<polygon class="st3" points="331.1,659.9 285.7,659.9 285.7,632.4 258.2,632.4 258.2,687.4 358.6,687.4 			"/>
		</g>
		<g>
			<polygon class="st3" points="441.3,549.9 375.3,549.9 375.3,577.4 413.8,577.4 			"/>
		</g>
		<g>
			<polygon class="st3" points="416.6,687.4 444.1,687.4 444.1,595.7 462.3,577.4 485.3,577.4 485.3,549.9 450.9,549.9 416.6,584.3 
							"/>
		</g>
		<g>
			<polygon class="st3" points="519.9,577.4 602.4,577.4 602.4,549.9 492.4,549.9 492.4,650.1 519.9,622.6 			"/>
		</g>
		<g>
			<polygon class="st3" points="602.4,659.9 531.3,659.9 586.3,604.9 547.4,604.9 492.4,659.9 492.4,687.4 602.4,687.4 			"/>
		</g>
		<g>
			<polygon class="st3" points="258.2,804.8 285.7,832.3 368.2,832.3 368.2,804.8 297.1,804.8 285.7,793.4 285.7,722.3 329.3,722.3 
				301.8,749.8 340.7,749.8 368.2,722.3 368.2,694.8 258.2,694.8 			"/>
		</g>
		<g>
			<polygon class="st3" points="493,832.3 520.5,832.3 520.5,722.3 575.5,722.3 575.5,738.4 536.6,777.3 575.5,777.3 603,749.8 
				603,694.8 493,694.8 			"/>
		</g>
		<g>
			<rect x="575.5" y="777.3" class="st3" width="27.5" height="55"/>
		</g>
		<g>
			<polygon class="st3" points="375.5,722.3 375.5,832.3 409.4,832.3 436.9,804.8 403,804.8 403,733.7 414.4,722.3 458,722.3 
				458,793.4 419.1,832.3 458,832.3 485.5,804.8 485.5,694.8 403,694.8 			"/>
		</g>
		<g>
			<polygon class="st3" points="609,832.3 636.5,832.3 636.5,722.3 713.9,722.3 713.9,738.4 702.4,750 644.5,750 644.5,777.2 
				675.1,777.2 675,777.3 713.9,777.3 714,777.2 737.2,754 741.4,749.8 741.4,694.8 609,694.8 			"/>
		</g>
		<g>
			<polygon class="st3" points="636.2,658.7 636.2,628.3 636.2,589.7 655.5,609 674.8,628.3 681,622 694.1,609 674.8,589.7 
				636.2,551.2 635,550 609,550 609,550 609,562.4 609,687.3 636.2,687.3 			"/>
		</g>
		<g>
			<polygon class="st3" points="714.6,550 714.5,550 714.5,550 679.7,584.9 698.9,604.1 714.5,588.5 714.5,617 714.5,629.5 
				714.5,655.5 714.5,657.6 714.5,687.3 741.8,687.3 741.8,561.3 741.8,550 			"/>
		</g>
	</g>
</g>
<g id="Layer_2" class="st0">
	<g class="st4">
		<g>
			<g>
				<path class="st3" d="M300.7,733.4c-0.6,0-1-0.4-1-1V587h-2.9c-0.3,0-0.5-0.1-0.7-0.3l-3.2-3.2c-0.2-0.2-0.3-0.4-0.3-0.7V566
					c0-0.3,0.1-0.5,0.3-0.7l4.5-4.5c0.2-0.2,0.4-0.3,0.7-0.3h3.3v-15.2h-3.6c-0.3,0-0.5-0.1-0.7-0.3l-6.5-6.5
					c-0.2-0.2-0.3-0.4-0.3-0.7v-32.4c0-0.3,0.1-0.5,0.3-0.7l5.6-5.6V454c0-0.6,0.4-1,1-1h14.7c0.6,0,1,0.4,1,1v12.5h0.4
					c0.6,0,1,0.4,1,1V489h4.4c0.6,0,1,0.4,1,1v3.9l1,1v-62.5c0-0.3,0.1-0.5,0.3-0.7l4-4v-16.3l-3.5-3.5c-0.2-0.2-0.3-0.4-0.3-0.7
					v-14c0-0.3,0.1-0.5,0.3-0.7l4.2-4.2v-73c0-0.3,0.1-0.5,0.3-0.7l4.1-4.1v-14.3c0-0.3,0.1-0.5,0.3-0.7l3.4-3.4
					c0.2-0.2,0.4-0.3,0.7-0.3c0.1,0,0.3,0,0.4,0.1c0.4,0.2,0.6,0.5,0.6,0.9v21.4h1.6v-12.5c0-0.3,0.1-0.5,0.3-0.7l2.5-2.5v-12.7
					c0-0.3,0.1-0.5,0.3-0.7l4.3-4.3V248c0-0.3,0.1-0.5,0.3-0.7l3.6-3.6c0.2-0.2,0.4-0.3,0.7-0.3c0.1,0,0.3,0,0.4,0.1
					c0.4,0.2,0.6,0.5,0.6,0.9l-0.2,111l3,3c0.2,0.2,0.3,0.4,0.3,0.7v87.7l4.7-4.7v-25.3c0-0.3,0.1-0.5,0.3-0.7l4.1-4.1v-53.9
					c0-0.6,0.4-1,1-1h3.6c0.6,0,1,0.4,1,1v71.8h1.6v-42.7c0-0.6,0.4-1,1-1h6.1v-4c0-0.3,0.1-0.5,0.3-0.7l4.6-4.6
					c0.2-0.2,0.4-0.3,0.7-0.3c0.1,0,0.3,0,0.4,0.1c0.4,0.2,0.6,0.5,0.6,0.9v64.7l5.3,5.3c0.2,0.2,0.3,0.4,0.3,0.7v133l4.5,4.5
					c0.2,0.2,0.3,0.4,0.3,0.7v146c0,0.6-0.4,1-1,1H300.7z M318.1,723.3v-79.7h-1.2v79.7H318.1z M311,721.9v-91.4h-1.2v91.4H311z
					 M328.8,721.1v-59.4H328v59.4H328.8z M356.9,553.5v-1.9h-10.1v1.9H356.9z M373.2,526.5V461H372v65.5H373.2z M308.9,493.1v-0.8
					h-5.5v0.8H308.9z M307.5,487.4v-0.5h-4.7v0.5H307.5z M330.6,454.4v-11.1h-0.8v11.1H330.6z"/>
				<path class="st2" d="M349,244.4l-0.2,111.4l3.3,3.3V395v54.3l6.7-6.7v-25.8l4.4-4.4v-54.3h3.6v72.8h3.6v-43.7h7.1v-5l4.6-4.6
					v65.1l5.6,5.6v133.4l4.8,4.8v146h-91.6V586h-3.9l-3.2-3.2V566l4.5-4.5h4.3v-17.2h-4.6l-6.5-6.5v-32.4l5.9-5.9V454h14.7v13.5h1.4
					V490h5.4v4.3l3,3v-64.9l4.3-4.3v-17.2l-3.8-3.8v-14l4.5-4.5v-73.4l4.4-4.4v-14.7l3.4-3.4v22.4h3.6v-13.5l2.8-2.8v-13.1l4.6-4.6
					v-33L349,244.4 M328.7,455.4h2.8v-13.1h-2.8V455.4 M371,527.5h3.2V460H371V527.5 M341.2,468.5h6.4v-1.8h-6.4V468.5 M341.2,473.5
					h7.1v-1.8h-7.1V473.5 M301.7,488.4h6.7v-2.5h-6.7V488.4 M302.5,494.1h7.5v-2.8h-7.5V494.1 M345.8,554.5h12.1v-3.9h-12.1V554.5
					 M308.8,722.9h3.2v-93.4h-3.2V722.9 M315.9,724.3h3.2v-81.7h-3.2V724.3 M327,722.1h2.8v-61.4H327V722.1 M349,242.4
					c-0.5,0-1,0.2-1.4,0.6l-3.6,3.6c-0.4,0.4-0.6,0.9-0.6,1.4v32.2l-4,4c-0.4,0.4-0.6,0.9-0.6,1.4v12.3l-2.3,2.3
					c0,0-0.1,0.1-0.1,0.2v-7.6c0-0.8-0.5-1.5-1.2-1.8c-0.2-0.1-0.5-0.2-0.8-0.2c-0.5,0-1,0.2-1.4,0.6l-3.4,3.4
					c-0.4,0.4-0.6,0.9-0.6,1.4V310l-3.8,3.8c-0.4,0.4-0.6,0.9-0.6,1.4v72.6l-3.9,3.9c-0.4,0.4-0.6,0.9-0.6,1.4v14
					c0,0.5,0.2,1,0.6,1.4l3.2,3.2v15.5l-3.7,3.7c-0.4,0.4-0.6,0.9-0.6,1.4v55.9c-0.3-0.2-0.7-0.3-1-0.3h-3.4v-20.5
					c0-0.9-0.6-1.7-1.4-1.9V454c0-1.1-0.9-2-2-2h-14.7c-1.1,0-2,0.9-2,2v44.6l-5.3,5.3c-0.4,0.4-0.6,0.9-0.6,1.4v32.4
					c0,0.5,0.2,1,0.6,1.4l6.5,6.5c0.4,0.4,0.9,0.6,1.4,0.6h2.6v13.2h-2.3c-0.5,0-1,0.2-1.4,0.6l-4.5,4.5c-0.4,0.4-0.6,0.9-0.6,1.4
					v16.8c0,0.5,0.2,1,0.6,1.4l3.2,3.2c0.4,0.4,0.9,0.6,1.4,0.6h1.9v144.5c0,1.1,0.9,2,2,2h91.6c1.1,0,2-0.9,2-2v-146
					c0-0.5-0.2-1-0.6-1.4l-4.2-4.2V448.3c0-0.5-0.2-1-0.6-1.4l-5-5v-64.3c0-0.8-0.5-1.5-1.2-1.8c-0.2-0.1-0.5-0.2-0.8-0.2
					c-0.5,0-1,0.2-1.4,0.6l-4.6,4.6c-0.4,0.4-0.6,0.9-0.6,1.4v3h-5.1c-0.6,0-1.2,0.3-1.6,0.7v-27.9c0-1.1-0.9-2-2-2h-3.6
					c-1.1,0-2,0.9-2,2v53.5l-3.9,3.9c-0.4,0.4-0.6,0.9-0.6,1.4v24.9l-2.7,2.7V395v-35.9c0-0.5-0.2-1-0.6-1.4l-2.7-2.7l0.2-110.6
					c0-0.8-0.5-1.5-1.2-1.9C349.5,242.5,349.2,242.4,349,242.4L349,242.4z M349,246.4L349,246.4L349,246.4L349,246.4z"/>
			</g>
			<g>
				<path class="st3" d="M607.7,733.4c-0.6,0-1-0.4-1-1v-146c0-0.3,0.1-0.5,0.3-0.7l4.5-4.5v-133c0-0.3,0.1-0.5,0.3-0.7l5.3-5.3
					v-64.7c0-0.4,0.2-0.8,0.6-0.9c0.1-0.1,0.3-0.1,0.4-0.1c0.3,0,0.5,0.1,0.7,0.3l4.6,4.6c0.2,0.2,0.3,0.4,0.3,0.7v4h6.1
					c0.6,0,1,0.4,1,1v42.7h1.6v-71.8c0-0.6,0.4-1,1-1h3.6c0.6,0,1,0.4,1,1V412l4.1,4.1c0.2,0.2,0.3,0.4,0.3,0.7v25.3l4.7,4.7v-87.7
					c0-0.3,0.1-0.5,0.3-0.7l3-3l-0.2-111c0-0.4,0.2-0.8,0.6-0.9c0.1-0.1,0.3-0.1,0.4-0.1c0.3,0,0.5,0.1,0.7,0.3l3.6,3.6
					c0.2,0.2,0.3,0.4,0.3,0.7v32.6l4.3,4.3c0.2,0.2,0.3,0.4,0.3,0.7v12.7l2.5,2.5c0.2,0.2,0.3,0.4,0.3,0.7v12.5h1.6v-21.4
					c0-0.4,0.2-0.8,0.6-0.9c0.1-0.1,0.3-0.1,0.4-0.1c0.3,0,0.5,0.1,0.7,0.3l3.4,3.4c0.2,0.2,0.3,0.4,0.3,0.7v14.3l4.1,4.1
					c0.2,0.2,0.3,0.4,0.3,0.7v73l4.2,4.2c0.2,0.2,0.3,0.4,0.3,0.7v14c0,0.3-0.1,0.5-0.3,0.7l-3.5,3.5v16.3l4,4
					c0.2,0.2,0.3,0.4,0.3,0.7v62.5l1-1V490c0-0.6,0.4-1,1-1h4.4v-21.5c0-0.6,0.4-1,1-1h0.4V454c0-0.6,0.4-1,1-1h14.7
					c0.6,0,1,0.4,1,1V499l5.6,5.6c0.2,0.2,0.3,0.4,0.3,0.7v32.4c0,0.3-0.1,0.5-0.3,0.7L703,545c-0.2,0.2-0.4,0.3-0.7,0.3h-3.6v15.2
					h3.3c0.3,0,0.5,0.1,0.7,0.3l4.5,4.5c0.2,0.2,0.3,0.4,0.3,0.7v16.8c0,0.3-0.1,0.5-0.3,0.7l-3.2,3.2c-0.2,0.2-0.4,0.3-0.7,0.3
					h-2.9v145.5c0,0.6-0.4,1-1,1H607.7z M683.1,723.3v-79.7h-1.2v79.7H683.1z M690.2,721.9v-91.4H689v91.4H690.2z M672,721.1v-59.4
					h-0.8v59.4H672z M653.2,553.5v-1.9h-10.1v1.9H653.2z M628,526.5V461h-1.2v65.5H628z M696.5,493.1v-0.8h-5.5v0.8H696.5z
					 M697.3,487.4v-0.5h-4.7v0.5H697.3z M670.3,454.4v-11.1h-0.8v11.1H670.3z"/>
				<path class="st2" d="M651,244.4l3.6,3.6v33l4.6,4.6v13.1l2.8,2.8v13.5h3.6v-22.4l3.4,3.4v14.7l4.4,4.4v73.4l4.5,4.5v14l-3.8,3.8
					V428l4.3,4.3v64.9l3-3V490h5.4v-22.5h1.4V454h14.7v45.5l5.9,5.9v32.4l-6.5,6.5h-4.6v17.2h4.3l4.5,4.5v16.8l-3.2,3.2h-3.9v146.5
					h-91.6v-146l4.8-4.8V448.3l5.6-5.6v-65.1l4.6,4.6v5h7.1v43.7h3.6v-72.8h3.6v54.3l4.4,4.4v25.8l6.7,6.7V395v-35.9l3.3-3.3
					L651,244.4 M668.4,455.4h2.8v-13.1h-2.8V455.4 M625.8,527.5h3.2V460h-3.2V527.5 M652.4,468.5h6.4v-1.8h-6.4V468.5 M651.7,473.5
					h7.1v-1.8h-7.1V473.5 M691.5,488.4h6.7v-2.5h-6.7V488.4 M690.1,494.1h7.5v-2.8h-7.5V494.1 M642.1,554.5h12.1v-3.9h-12.1V554.5
					 M688,722.9h3.2v-93.4H688V722.9 M680.9,724.3h3.2v-81.7h-3.2V724.3 M670.2,722.1h2.8v-61.4h-2.8V722.1 M651,242.4
					c-0.3,0-0.5,0.1-0.8,0.2c-0.7,0.3-1.2,1-1.2,1.9l0.2,110.6l-2.7,2.7c-0.4,0.4-0.6,0.9-0.6,1.4V395v49.4l-2.7-2.7v-24.9
					c0-0.5-0.2-1-0.6-1.4l-3.9-3.9v-53.5c0-1.1-0.9-2-2-2h-3.6c-1.1,0-2,0.9-2,2v27.9c-0.4-0.5-0.9-0.7-1.6-0.7h-5.1v-3
					c0-0.5-0.2-1-0.6-1.4l-4.6-4.6c-0.4-0.4-0.9-0.6-1.4-0.6c-0.3,0-0.5,0-0.8,0.2c-0.7,0.3-1.2,1-1.2,1.8v64.3l-5,5
					c-0.4,0.4-0.6,0.9-0.6,1.4v132.5l-4.2,4.2c-0.4,0.4-0.6,0.9-0.6,1.4v146c0,1.1,0.9,2,2,2h91.6c1.1,0,2-0.9,2-2V588h1.9
					c0.5,0,1-0.2,1.4-0.6l3.2-3.2c0.4-0.4,0.6-0.9,0.6-1.4V566c0-0.5-0.2-1-0.6-1.4l-4.5-4.5c-0.4-0.4-0.9-0.6-1.4-0.6h-2.3v-13.2
					h2.6c0.5,0,1-0.2,1.4-0.6l6.5-6.5c0.4-0.4,0.6-0.9,0.6-1.4v-32.4c0-0.5-0.2-1-0.6-1.4l-5.3-5.3V454c0-1.1-0.9-2-2-2h-14.7
					c-1.1,0-2,0.9-2,2v11.6c-0.8,0.2-1.4,1-1.4,1.9V488h-3.4c-0.4,0-0.7,0.1-1,0.3v-55.9c0-0.5-0.2-1-0.6-1.4l-3.7-3.7v-15.5
					l3.2-3.2c0.4-0.4,0.6-0.9,0.6-1.4v-14c0-0.5-0.2-1-0.6-1.4l-3.9-3.9v-72.6c0-0.5-0.2-1-0.6-1.4L671,310v-13.9
					c0-0.5-0.2-1-0.6-1.4l-3.4-3.4c-0.4-0.4-0.9-0.6-1.4-0.6c-0.3,0-0.5,0-0.8,0.2c-0.7,0.3-1.2,1-1.2,1.8v7.6
					c0-0.1-0.1-0.1-0.1-0.2l-2.3-2.3v-12.3c0-0.5-0.2-1-0.6-1.4l-4-4V248c0-0.5-0.2-1-0.6-1.4l-3.6-3.6
					C652,242.6,651.5,242.4,651,242.4L651,242.4z"/>
			</g>
			<g>
				<path class="st3" d="M525.6,733.7c-0.2,0-0.5-0.1-0.6-0.2h-50c-0.2,0.1-0.4,0.2-0.6,0.2h-19.2c-0.2,0-0.5-0.1-0.6-0.2h-62.2
					c-0.6,0-1-0.4-1-1V461.6c0-0.3,0.1-0.5,0.3-0.7l3.5-3.5V401c0-0.3,0.1-0.5,0.3-0.7l3.8-3.8v-49l-3.4-3.4c-0.4-0.4-0.4-1,0-1.4
					l3.9-3.9v-42.8c0-0.3,0.1-0.5,0.3-0.7l2.7-2.7v-36.8c0-0.3,0.1-0.5,0.3-0.7l4-4c0.2-0.2,0.4-0.3,0.7-0.3c0.1,0,0.3,0,0.4,0.1
					c0.4,0.2,0.6,0.5,0.6,0.9l0.1,37.6l4.8-4.8c0.2-0.2,0.5-0.3,0.7-0.3s0.5,0.1,0.7,0.3l6.9,6.9c0.2,0.2,0.3,0.4,0.3,0.7v40.5
					l0.2,0.2v-27.1c0-0.6,0.4-1,1-1h8.6c0.6,0,1,0.4,1,1v21.4h21.3c0.3,0,0.5,0.1,0.7,0.3l4.8,4.8c0.2,0.2,0.3,0.4,0.3,0.7v59.6
					l4.2,4.2c0.2,0.2,0.3,0.4,0.3,0.7v5.1c0,0.6-0.4,1-1,1h-3.2v30.8l7.9,7.9c0.2,0.2,0.3,0.4,0.3,0.7v30.2c0,0.3-0.1,0.5-0.3,0.7
					l-3.6,3.6V529c0,0.3-0.1,0.5-0.3,0.7l-2.1,2.1v68.4l3.9,3.9l4.2-4.2V445.6c0-0.3,0.1-0.5,0.3-0.7l6.8-6.8
					c0.2-0.2,0.4-0.3,0.7-0.3h4.6l-1.9-1.9c-0.2-0.2-0.3-0.4-0.3-0.7v-38.7c0-0.6,0.4-1,1-1h6.8v-3.5h-9.1c-0.3,0-0.5-0.1-0.7-0.3
					l-6.6-6.6c-0.3-0.3-0.4-0.7-0.2-1.1c0.2-0.4,0.5-0.6,0.9-0.6h15.7v-40.2c0-0.3,0.1-0.5,0.3-0.7l4.7-4.7V211
					c0-0.3,0.1-0.5,0.3-0.7l2.5-2.5v-39.4c0-0.1,0-0.1,0-0.2l2.5-12.4c0.1-0.5,0.5-0.8,1-0.8c0,0,0,0,0,0c0.5,0,0.9,0.3,1,0.8
					l2.5,12.4c0,0.1,0,0.1,0,0.2v39.4l2.5,2.5c0.2,0.2,0.3,0.4,0.3,0.7v126.7l4.7,4.7c0.2,0.2,0.3,0.4,0.3,0.7v40.2H527
					c0.4,0,0.8,0.2,0.9,0.6c0.2,0.4,0.1,0.8-0.2,1.1l-6.6,6.6c-0.2,0.2-0.4,0.3-0.7,0.3h-9.1v3.5h6.8c0.6,0,1,0.4,1,1v38.7
					c0,0.3-0.1,0.5-0.3,0.7l-1.9,1.9h4.6c0.3,0,0.5,0.1,0.7,0.3l6.8,6.8c0.2,0.2,0.3,0.4,0.3,0.7v154.2l4.3,4.3l3.9-3.9v-68.4
					l-2.1-2.1c-0.2-0.2-0.3-0.4-0.3-0.7v-51.4l-3.6-3.6c-0.2-0.2-0.3-0.4-0.3-0.7v-30.2c0-0.3,0.1-0.5,0.3-0.7l7.9-7.9v-30.8h-3.2
					c-0.6,0-1-0.4-1-1v-5.1c0-0.3,0.1-0.5,0.3-0.7l4.2-4.2V333c0-0.3,0.1-0.5,0.3-0.7l4.8-4.8c0.2-0.2,0.4-0.3,0.7-0.3h21.3v-21.4
					c0-0.6,0.4-1,1-1h8.6c0.6,0,1,0.4,1,1v27.1l0.2-0.2v-40.5c0-0.3,0.1-0.5,0.3-0.7l6.9-6.9c0.2-0.2,0.5-0.3,0.7-0.3
					s0.5,0.1,0.7,0.3l4.8,4.8l0.1-37.6c0-0.4,0.2-0.8,0.6-0.9c0.1-0.1,0.3-0.1,0.4-0.1c0.3,0,0.5,0.1,0.7,0.3l4,4
					c0.2,0.2,0.3,0.4,0.3,0.7v36.8l2.7,2.7c0.2,0.2,0.3,0.4,0.3,0.7v42.8l3.9,3.9c0.4,0.4,0.4,1,0,1.4l-3.4,3.4v49l3.8,3.8
					c0.2,0.2,0.3,0.4,0.3,0.7v56.4l3.5,3.5c0.2,0.2,0.3,0.4,0.3,0.7v270.9c0,0.6-0.4,1-1,1h-62.2c-0.2,0.2-0.4,0.2-0.6,0.2H525.6z
					 M570.3,716.8v-42h-8.7v42H570.3z M438.4,716.8v-42h-8.7v42H438.4z M500,705.2v-4h-18.6v4H500z M549.9,700.8V621h-1.4v79.9
					H549.9z M451.5,700.8V621h-1.4v79.9H451.5z M519.2,675.3v-41.7h-9.4v41.7H519.2z M488.6,629.5v-8.7H480v8.7H488.6z M599.8,576.3
					v-1.2h-27.3v1.2H599.8z M427.5,576.3v-1.2h-27.3v1.2H427.5z M517.8,565.2v-4h-17.2v4H517.8z M600.8,536.2v-59.8h-0.5v59.8H600.8
					z M399.7,536.2v-59.8h-0.5v59.8H399.7z M577,531.4v-1.6h-10.8v1.6H577z M433.8,531.4v-1.6H423v1.6H433.8z M594.6,508.1v-0.7
					h-8.3v0.7H594.6z M413.7,508.1v-0.7h-8.3v0.7H413.7z M525.6,502.3v-2.3h-13.3v2.3H525.6z M492.2,488.8v-1.9h-12.6v1.9H492.2z
					 M539,466.2v-19.3h-0.3v19.3H539z M461.3,466.2v-19.3H461v19.3H461.3z M498.2,465v-2.3h-17.9v2.3H498.2z M491.8,452.6v-2.3h-14
					v2.3H491.8z M588.6,413.5v-31h-1v31H588.6z M412.5,413.5v-31h-1v31H412.5z M510.8,410.5v-2.3h-16.7v2.3H510.8z M554.5,387.4
					v-0.5h-7.4v0.5H554.5z M452.9,387.4v-0.5h-7.4v0.5H452.9z M493.5,382.8v-31.6h-1.1v31.6H493.5z M555.9,369.1v-0.5h-9.5v0.5
					H555.9z M453.7,369.1v-0.5h-9.5v0.5H453.7z M557.3,347.6v-0.5h-8.7v0.5H557.3z M451.3,347.6v-0.5h-8.7v0.5H451.3z M500.6,215.6
					v-2.5h-2.3v2.5H500.6z"/>
				<path class="st2" d="M500,156l2.5,12.4v39.8l2.8,2.8v127.2l5,5v41.2H527l-6.6,6.6h-10.1v5.5h7.8v38.7l-3.6,3.6h7l6.8,6.8v154.6
					l5.3,5.3l4.9-4.9v-69.3l-2.4-2.4v-26.8v-5.7v-19.4l-3.9-3.9v-30.2l8.2-8.2v-32.3h-4.2v-5.1l4.5-4.5v-60l4.8-4.8h22.3v-22.4h8.6
					v29.5l2.2-2.2v-40.9l6.9-6.9l6.5,6.5l0.1-40l4,4v37.2l3,3v43.2l4.2,4.2l-3.7,3.7v49.8l4.1,4.1v56.8l3.8,3.8v111.3v159.6h-62.8
					l0,0.2h-19.2v-0.2h-25h-1.4h-24.9v0.2h-19.2l0-0.2h-62.8V572.8V461.6l3.8-3.8V401l4.1-4.1v-49.8l-3.7-3.7l4.2-4.2v-43.2l3-3
					v-37.2l4-4l0.1,40l6.5-6.5l6.9,6.9V333l2.2,2.2v-29.5h8.6v22.4h22.3l4.8,4.8v60l4.5,4.5v5.1h-4.2v32.3l8.2,8.2v30.2l-3.9,3.9
					v19.4v5.7V529l-2.4,2.4v69.3l4.9,4.9l5.2-5.2V445.6l6.8-6.8h7l-3.6-3.6v-38.7h7.8v-5.5h-10.1l-6.6-6.6h16.7v-41.2l5-5V211
					l2.8-2.8v-39.8L500,156l0,12L500,156 M497.3,216.6h4.3v-4.5h-4.3V216.6 M545.3,340.8h11.2v-2h-11.2V340.8 M443.5,340.8h11.2v-2
					h-11.2V340.8 M547.7,348.6h10.7v-2.5h-10.7V348.6 M441.7,348.6h10.7v-2.5h-10.7V348.6 M491.4,383.8h3.1v-33.6h-3.1V383.8
					 M545.3,370.1h11.5v-2.5h-11.5V370.1 M443.1,370.1h11.5v-2.5h-11.5V370.1 M586.5,414.5h3v-33h-3V414.5 M410.4,414.5h3v-33h-3
					V414.5 M546.1,388.4h9.4v-2.5h-9.4V388.4 M444.5,388.4h9.4v-2.5h-9.4V388.4 M493.1,411.5h18.7v-4.3h-18.7V411.5 M562.9,431.7
					h21.1v-1.8h-21.1V431.7 M415.9,431.7h21.1v-1.8h-21.1V431.7 M537.7,467.2h2.3v-21.3h-2.3V467.2 M460,467.2h2.3v-21.3H460V467.2
					 M476.9,453.6h16v-4.3h-16V453.6 M479.3,466h19.9v-4.3h-19.9V466 M599.3,537.2h2.5v-61.8h-2.5V537.2 M398.2,537.2h2.5v-61.8
					h-2.5V537.2 M478.6,489.8h14.6v-3.9h-14.6V489.8 M511.3,503.3h15.3v-4.3h-15.3V503.3 M585.3,509.1h10.3v-2.7h-10.3V509.1
					 M404.4,509.1h10.3v-2.7h-10.3V509.1 M565.2,532.4H578v-3.6h-12.8V532.4 M422,532.4h12.8v-3.6H422V532.4 M499.6,566.2h19.2v-6
					h-19.2V566.2 M571.5,577.3h29.3v-3.2h-29.3V577.3 M399.2,577.3h29.3v-3.2h-29.3V577.3 M479,630.5h10.7v-10.7H479V630.5
					 M547.5,701.8h3.4V620h-3.4V701.8 M449.1,701.8h3.4V620h-3.4V701.8 M508.8,676.3h11.4v-43.7h-11.4V676.3 M560.6,717.8h10.7v-44
					h-10.7V717.8 M428.7,717.8h10.7v-44h-10.7V717.8 M480.4,706.2H501v-6h-20.6V706.2 M500,154C500,154,500,154,500,154
					C500,154,499.9,154,500,154c-1,0-1.8,0.7-2,1.6l-2.5,12.4c0,0.1,0,0.3,0,0.4v39l-2.3,2.3c-0.4,0.4-0.6,0.9-0.6,1.4v126.3
					l-4.4,4.4c-0.4,0.4-0.6,0.9-0.6,1.4v39.2h-14.7c-0.8,0-1.5,0.5-1.8,1.2c-0.3,0.7-0.1,1.6,0.4,2.2l6.6,6.6
					c0.4,0.4,0.9,0.6,1.4,0.6h8.1v1.5h-5.8c-1.1,0-2,0.9-2,2v38.7c0,0.5,0.2,1,0.6,1.4l0.2,0.2h-2.2c-0.5,0-1,0.2-1.4,0.6l-6.8,6.8
					c-0.2,0.2-0.3,0.4-0.4,0.6v-1.7c0-0.5-0.2-1-0.6-1.4l-7.6-7.6v-29.4h2.2c1.1,0,2-0.9,2-2v-5.1c0-0.5-0.2-1-0.6-1.4l-3.9-3.9V333
					c0-0.5-0.2-1-0.6-1.4l-4.8-4.8c-0.4-0.4-0.9-0.6-1.4-0.6h-20.3v-20.4c0-1.1-0.9-2-2-2h-8.6c-0.1,0-0.1,0-0.2,0v-11.6
					c0-0.5-0.2-1-0.6-1.4l-6.9-6.9c-0.4-0.4-0.9-0.6-1.4-0.6s-1,0.2-1.4,0.6l-3.1,3.1l-0.1-35.2c0-0.8-0.5-1.5-1.2-1.8
					c-0.2-0.1-0.5-0.2-0.8-0.2c-0.5,0-1,0.2-1.4,0.6l-4,4c-0.4,0.4-0.6,0.9-0.6,1.4v36.3l-2.4,2.4c-0.4,0.4-0.6,0.9-0.6,1.4v42.4
					l-3.6,3.6c-0.4,0.4-0.6,0.9-0.6,1.4c0,0.5,0.2,1,0.6,1.4l3.1,3.1v48.2l-3.5,3.5c-0.4,0.4-0.6,0.9-0.6,1.4v55.9l-3.2,3.2
					c-0.4,0.4-0.6,0.9-0.6,1.4v111.3v159.6c0,1.1,0.9,2,2,2h61.9c0.3,0.2,0.6,0.2,0.9,0.2h19.2c0.3,0,0.7-0.1,0.9-0.2h23.9h1.4h24
					c0.3,0.2,0.6,0.2,0.9,0.2h19.2c0.3,0,0.7-0.1,0.9-0.2h61.9c1.1,0,2-0.9,2-2V572.8V461.6c0-0.5-0.2-1-0.6-1.4l-3.2-3.2V401
					c0-0.5-0.2-1-0.6-1.4l-3.5-3.5v-48.2l3.1-3.1c0.4-0.4,0.6-0.9,0.6-1.4c0-0.5-0.2-1-0.6-1.4l-3.6-3.6v-42.4c0-0.5-0.2-1-0.6-1.4
					l-2.4-2.4v-36.3c0-0.5-0.2-1-0.6-1.4l-4-4c-0.4-0.4-0.9-0.6-1.4-0.6c-0.3,0-0.5,0-0.8,0.2c-0.7,0.3-1.2,1-1.2,1.8l-0.1,35.2
					l-3.1-3.1c-0.4-0.4-0.9-0.6-1.4-0.6s-1,0.2-1.4,0.6l-6.9,6.9c-0.4,0.4-0.6,0.9-0.6,1.4v11.6c-0.1,0-0.1,0-0.2,0h-8.6
					c-1.1,0-2,0.9-2,2v20.4h-20.3c-0.5,0-1,0.2-1.4,0.6l-4.8,4.8c-0.4,0.4-0.6,0.9-0.6,1.4v59.2l-3.9,3.9c-0.4,0.4-0.6,0.9-0.6,1.4
					v5.1c0,1.1,0.9,2,2,2h2.2V434l-7.6,7.6c-0.4,0.4-0.6,0.9-0.6,1.4v1.9c-0.1-0.3-0.3-0.6-0.5-0.8l-6.8-6.8
					c-0.4-0.4-0.9-0.6-1.4-0.6h-2.2l0.2-0.2c0.4-0.4,0.6-0.9,0.6-1.4v-38.7c0-1.1-0.9-2-2-2h-5.8v-1.5h8.1c0.5,0,1-0.2,1.4-0.6
					l6.6-6.6c0.6-0.6,0.7-1.4,0.4-2.2c-0.3-0.7-1-1.2-1.8-1.2h-14.7v-39.2c0-0.5-0.2-1-0.6-1.4l-4.4-4.4V211c0-0.5-0.2-1-0.6-1.4
					l-2.3-2.3v-39c0-0.1,0-0.3,0-0.4l-2.5-12.4C501.7,154.6,500.9,154,500,154L500,154z M499.3,214.1h0.3v0.5h-0.3V214.1
					L499.3,214.1z M495.1,409.2h14.7v0.3h-14.7V409.2L495.1,409.2z M478.9,451.4h12v0.3h-12V451.4L478.9,451.4z M481.3,463.8h15.9
					v0.3h-15.9V463.8L481.3,463.8z M530.4,599.4V473.9c0.1,0.3,0.3,0.6,0.5,0.8l3.3,3.3v18.6v5.7V529c0,0.5,0.2,1,0.6,1.4l1.8,1.8
					v67.6l-2.9,2.9L530.4,599.4L530.4,599.4z M465.8,478l3.3-3.3c0.2-0.2,0.3-0.4,0.4-0.6v125.4l-3.2,3.2l-2.9-2.9v-67.6l1.8-1.8
					c0.4-0.4,0.6-0.9,0.6-1.4v-26.8v-5.7V478L465.8,478z M513.3,501.1h11.3v0.3h-11.3V501.1L513.3,501.1z M501.6,562.2h15.2v2h-15.2
					V562.2L501.6,562.2z M481,621.8h6.7v6.7H481V621.8L481,621.8z M510.8,634.6h7.4v39.7h-7.4V634.6L510.8,634.6z M562.6,675.8h6.7
					v40h-6.7V675.8L562.6,675.8z M430.7,675.8h6.7v40h-6.7V675.8L430.7,675.8z M482.4,702.1H499v2h-16.6V702.1L482.4,702.1z"/>
			</g>
		</g>
		<g>
			<path class="st3" d="M563.8,845c-0.6,0-1-0.4-1-1v-54h-29.6v54c0,0.6-0.4,1-1,1h-50.9c-0.6,0-1-0.4-1-1v-16l-16.7,16.7
				c-0.2,0.2-0.4,0.3-0.7,0.3H280.9c-0.3,0-0.5-0.1-0.7-0.3l-34.4-34.4c-0.2-0.2-0.3-0.4-0.3-0.7v-189c0-0.6,0.4-1,1-1h36L245.8,583
				c-0.2-0.2-0.3-0.4-0.3-0.7v-44.1c0-0.6,0.4-1,1-1h367.6c0.1,0,0.2,0,0.3,0.1h25.4c0.3,0,0.5,0.1,0.7,0.3l34.2,34.2l34.2-34.2
				c0.2-0.2,0.4-0.3,0.7-0.3l4.7,0c0.1,0,0.1,0,0.2,0h38.9c0.6,0,1,0.4,1,1V699c0,0.3-0.1,0.6-0.4,0.8v54.8c0,0.3-0.1,0.5-0.3,0.7
				l-34.4,34.4c-0.2,0.2-0.4,0.3-0.7,0.3h-69.5v54c0,0.6-0.4,1-1,1c0,0-33.5,0-33.5,0H563.8z"/>
			<path class="st2" d="M614.1,538.2L614.1,538.2l25.8,0.1l34.9,34.9l34.9-34.9l4.9,0v0h38.9V699h-0.4v55.6L718.7,789h-70.5v55
				h-33.5v0h-50.9v-55h-31.6v55h-50.9v-18.4L462.8,844h-82.9h-16.2h-82.9l-34.4-34.4V699.1v-16v-62.4H285l-38.4-38.4v-44.1h117.1
				h16.4h66.1h23.5h11.1H497H614.1 M614.1,536.2H497h-16.4h-11.1h-23.5h-66.1h-16.4H246.5c-1.1,0-2,0.9-2,2v44.1
				c0,0.5,0.2,1,0.6,1.4l35,35h-33.6c-1.1,0-2,0.9-2,2v62.4v16v110.6c0,0.5,0.2,1,0.6,1.4l34.4,34.4c0.4,0.4,0.9,0.6,1.4,0.6h82.9
				h16.2h82.9c0.5,0,1-0.2,1.4-0.6l15-15V844c0,1.1,0.9,2,2,2h50.9c1.1,0,2-0.9,2-2v-53h27.6v53c0,1.1,0.9,2,2,2h50.9
				c0,0,0.1,0,0.1,0h33.4c1.1,0,2-0.9,2-2v-53h68.5c0.5,0,1-0.2,1.4-0.6l34.4-34.4c0.4-0.4,0.6-0.9,0.6-1.4v-54.5
				c0.2-0.3,0.4-0.7,0.4-1.2V538.3c0-1.1-0.9-2-2-2h-38.9c-0.1,0-0.2,0-0.3,0l-4.6,0c-0.5,0-1,0.2-1.4,0.6l-33.5,33.5l-33.5-33.5
				c-0.4-0.4-0.9-0.6-1.4-0.6h-25.3C614.4,536.2,614.3,536.2,614.1,536.2L614.1,536.2z"/>
		</g>
		<g>
			<g>
				<polygon class="st2" points="258.2,577.4 368.2,687.4 368.2,648.5 297.1,577.4 368.2,577.4 368.2,549.9 258.2,549.9 				"/>
			</g>
			<g>
				<polygon class="st2" points="331.1,659.9 285.7,659.9 285.7,632.4 258.2,632.4 258.2,687.4 358.6,687.4 				"/>
			</g>
			<g>
				<polygon class="st2" points="441.3,549.9 375.3,549.9 375.3,577.4 413.8,577.4 				"/>
			</g>
			<g>
				<polygon class="st2" points="416.6,687.4 444.1,687.4 444.1,595.7 462.3,577.4 485.3,577.4 485.3,549.9 450.9,549.9 
					416.6,584.3 				"/>
			</g>
			<g>
				<polygon class="st2" points="519.9,577.4 602.4,577.4 602.4,549.9 492.4,549.9 492.4,650.1 519.9,622.6 				"/>
			</g>
			<g>
				<polygon class="st2" points="602.4,659.9 531.3,659.9 586.3,604.9 547.4,604.9 492.4,659.9 492.4,687.4 602.4,687.4 				"/>
			</g>
			<g>
				<polygon class="st2" points="258.2,804.8 285.7,832.3 368.2,832.3 368.2,804.8 297.1,804.8 285.7,793.4 285.7,722.3 
					329.3,722.3 301.8,749.8 340.7,749.8 368.2,722.3 368.2,694.8 258.2,694.8 				"/>
			</g>
			<g>
				<polygon class="st2" points="493,832.3 520.5,832.3 520.5,722.3 575.5,722.3 575.5,738.4 536.6,777.3 575.5,777.3 603,749.8 
					603,694.8 493,694.8 				"/>
			</g>
			<g>
				<rect x="575.5" y="777.3" class="st2" width="27.5" height="55"/>
			</g>
			<g>
				<polygon class="st2" points="375.5,722.3 375.5,832.3 409.4,832.3 436.9,804.8 403,804.8 403,733.7 414.4,722.3 458,722.3 
					458,793.4 419.1,832.3 458,832.3 485.5,804.8 485.5,694.8 403,694.8 				"/>
			</g>
			<g>
				<polygon class="st2" points="609,832.3 636.5,832.3 636.5,722.3 713.9,722.3 713.9,738.4 702.4,750 644.5,750 644.5,777.2 
					675.1,777.2 675,777.3 713.9,777.3 714,777.2 737.2,754 741.4,749.8 741.4,694.8 609,694.8 				"/>
			</g>
			<g>
				<polygon class="st2" points="636.2,658.7 636.2,628.3 636.2,589.7 655.5,609 674.8,628.3 681,622 694.1,609 674.8,589.7 
					636.2,551.2 635,550 609,550 609,550 609,562.4 609,687.3 636.2,687.3 				"/>
			</g>
			<g>
				<polygon class="st2" points="714.6,550 714.5,550 714.5,550 679.7,584.9 698.9,604.1 714.5,588.5 714.5,617 714.5,629.5 
					714.5,655.5 714.5,657.6 714.5,687.3 741.8,687.3 741.8,561.3 741.8,550 				"/>
			</g>
		</g>
	</g>
</g>
</svg>
